<?xml version="1.0" encoding="UTF-8"?>
<svg id="Layer_2" data-name="Layer 2" xmlns="http://www.w3.org/2000/svg" viewBox="0 0 15.17 13.52">
  <defs>
    <style>
      .cls-1 {
        stroke-width: 0px;
      }
    </style>
  </defs>
  <g id="Layer_1-2" data-name="Layer 1">
    <g>
      <path class="cls-1" d="M12.75,8.34c-.34.48-.91.97-1.5,1.25-.88.42-1.91.43-2.83.11-.2-.07-.4.08-.46.26-.36,1-.72,2-1.08,3-.16.45.56.65.72.2.36-1,.72-2,1.08-3l-.46.26c1.91.67,4.02-.07,5.17-1.71.28-.4-.37-.77-.65-.38h0Z"/>
      <path class="cls-1" d="M6.42,13.27c.27-.73.88-1.94.59-2.73s-1.36-.19-1.83.09c-.24.15-.66.55-.96.56-.84.01-.22-.66,0-.8.32-.22.69-.39,1.04-.56.98-.46,1.99-.6,3.06-.59.65,0,1.3.07,1.95.06.31,0,.64,0,.91-.18.75-.49.5-1.57-.25-1.89-.39-.16-.85-.12-1.26-.11-.61,0-1.22.02-1.84.02-1,0-2.05-.02-3.01-.35-.56-.19-1.11-.51-1.38-1.06-.14-.28-.21-.63-.18-.95.07-.66.76-1.04,1.37-.69,1.06.63.88,2.6.21,3.35s-1.7,1.68-2.72,1.88c-1.72.33-1.39-2.17-1.14-3.17C1.61,3.57,3.38,1.53,6.01.95c1.36-.3,3.03-.27,4.4-.03.95.16,1.8.58,2.54,1.2.99.82,1.72,1.98,1.39,3.3-.16.62-.51,1.2-1.16,1.37-.89.23-1.46-.4-1.58-1.22-.03-.21-.08-.52,0-.73.11-.25.48-.35.64-.08.1.17-.04.53-.14.69-.35.61-.98.46-1.56.34-1.59-.32-3.15-.61-4.77-.7-.48-.03-.48.72,0,.75,1.06.06,2.1.17,3.14.37.76.14,1.53.4,2.31.43,1.1.05,2.15-1.1,1.68-2.22-.22-.52-.86-.73-1.37-.54-.55.2-.73.76-.73,1.3,0,1.29.79,2.53,2.21,2.38,1.3-.13,2.01-1.32,2.13-2.53.14-1.38-.66-2.6-1.68-3.46-.96-.8-2.05-1.31-3.3-1.45-1.82-.21-3.85-.24-5.56.48C1.77,1.8-.21,4.94.02,8.06c.09,1.3.97,2.28,2.33,1.98.54-.12,1.04-.43,1.48-.75.63-.45,1.33-.99,1.79-1.62.75-1.06.66-2.69-.1-3.73-.88-1.21-2.85-.78-3.01.74-.35,3.31,4.19,3.23,6.32,3.2.35,0,.71-.01,1.06-.01.27,0,1.42.12.88.61-.14.13-.5.07-.67.07-.48-.01-.95-.04-1.43-.06-1.38-.03-2.66.13-3.91.75-.57.28-1.36.6-1.62,1.23-.21.51-.07,1.22.49,1.44.48.19,1-.04,1.4-.29.24-.16.48-.32.74-.46.15-.08.32-.18.48-.23.12-.04.11-.12.03.12-.22.67-.35,1.36-.6,2.03-.17.45.56.65.72.2h0Z"/>
    </g>
  </g>
</svg>